<?xml version="1.0" encoding="utf-8"?>
<!-- Generator: Adobe Illustrator 19.2.1, SVG Export Plug-In . SVG Version: 6.00 Build 0)  -->
<svg version="1.1" id="Layer_1" xmlns="http://www.w3.org/2000/svg" xmlns:xlink="http://www.w3.org/1999/xlink" x="0px" y="0px"
	 viewBox="0 0 35 35" style="enable-background:new 0 0 35 35;" xml:space="preserve">
<style type="text/css">
	.st0{fill:#FFFFFF;}
</style>
<path class="st0" d="M31.7,1.5H3.3c-1,0-1.8,0.8-1.8,1.8v28.5c0,1,0.8,1.8,1.8,1.8h15.5v-12H14v-5.5h4.8V12c0-4.7,2.9-7.3,7.1-7.3
	c2,0,3.8,0.2,4.3,0.2v4.9h-2.9c-2.3,0-2.7,1.1-2.7,2.7V16h5.5l-0.7,5.5h-4.8v12h7.3c1,0,1.8-0.8,1.8-1.8V3.3
	C33.5,2.3,32.7,1.5,31.7,1.5z"/>
</svg>
