<?xml version="1.0" encoding="utf-8"?>
<!-- Generator: Adobe Illustrator 19.2.1, SVG Export Plug-In . SVG Version: 6.00 Build 0)  -->
<svg version="1.1" id="Layer_1" xmlns="http://www.w3.org/2000/svg" xmlns:xlink="http://www.w3.org/1999/xlink" x="0px" y="0px"
	 viewBox="0 0 35 35" style="enable-background:new 0 0 35 35;" xml:space="preserve">
<style type="text/css">
	.st0{fill:#FFFFFF;}
</style>
<g>
	<path class="st0" d="M31.1,1.5H3.9c-1.3,0-2.4,1-2.4,2.3v27.4c0,1.3,1.1,2.3,2.4,2.3h27.3c1.3,0,2.4-1,2.4-2.3V3.8
		C33.5,2.5,32.4,1.5,31.1,1.5z M11,28.8H6.3V13.5H11V28.8z M8.6,11.4c-1.5,0-2.8-1.2-2.8-2.8c0-1.5,1.2-2.8,2.8-2.8
		c1.5,0,2.8,1.2,2.8,2.8S10.1,11.4,8.6,11.4z M28.8,28.8h-4.7v-7.4c0-1.8,0-4-2.5-4s-2.8,1.9-2.8,3.9v7.6h-4.7V13.5h4.4v2.1h0.1
		c0.6-1.2,2.2-2.5,4.5-2.5c4.8,0,5.7,3.2,5.7,7.3V28.8z"/>
</g>
</svg>
